<?xml version="1.0"?>
<svg xmlns="http://www.w3.org/2000/svg" version="1.1" width="600px" height="600px" viewBox="0 0 200 200" style="overflow:hidden!important;">
  <defs id="SvgjsDefs19370">
    <radialGradient id="SvgjsRadialGradient19436" cx="100" cy="114" r="41" gradientUnits="userSpaceOnUse" class="svga-on-canvas-facehighlight-gradient-single-0">
      <stop id="SvgjsStop19437" stop-opacity="0.5" stop-color="#ffffff" offset="0"/>
      <stop id="SvgjsStop19438" stop-opacity="0" stop-color="#f6e4e2" offset="0.9"/>
    </radialGradient>
    <radialGradient id="SvgjsRadialGradient19440" cx="100" cy="54" r="37" gradientUnits="userSpaceOnUse" class="svga-on-canvas-facehighlight-gradient-single-1">
      <stop id="SvgjsStop19441" stop-opacity="0.5" stop-color="#ffffff" offset="0"/>
      <stop id="SvgjsStop19442" stop-opacity="0" stop-color="#f6e4e2" offset="0.9"/>
    </radialGradient>
    <radialGradient id="SvgjsRadialGradient19525" cx="-568.659" cy="-521.042" r="59.751" gradientTransform="matrix(0.096 -0.0248 0.0245 0.0961 141.2814 119.9893)" gradientUnits="userSpaceOnUse" class="svga-on-canvas-eyesiris-gradient-left-1">
      <stop id="SvgjsStop19526" stop-opacity="1" stop-color="#ffffff" offset="0"/>
      <stop id="SvgjsStop19527" stop-opacity="0" stop-color="#ffffff" offset="1"/>
    </radialGradient>
    <radialGradient id="SvgjsRadialGradient19529" cx="-582.838" cy="-519.099" r="59.745" gradientTransform="matrix(0.0991 8.856319e-004 -0.0011 0.0991 131.1134 135.9855)" gradientUnits="userSpaceOnUse" class="svga-on-canvas-eyesiris-gradient-left-2">
      <stop id="SvgjsStop19530" stop-opacity="1" stop-color="#ffffff" offset="0"/>
      <stop id="SvgjsStop19531" stop-opacity="0" stop-color="#ffffff" offset="1"/>
    </radialGradient>
    <linearGradient id="SvgjsLinearGradient19535" x1="122.67" y1="88.268" x2="123.606" y2="87.152" gradientTransform="matrix(1 0 0 1 -52 0)" gradientUnits="userSpaceOnUse" class="svga-on-canvas-eyesiris-gradient-left-5">
      <stop id="SvgjsStop19536" stop-opacity="1" stop-color="#ffffff" offset="0"/>
      <stop id="SvgjsStop19537" stop-opacity="0" stop-color="#ffffff" offset="1"/>
    </linearGradient>
    <linearGradient id="SvgjsLinearGradient19539" x1="127.212" y1="82.296" x2="126.463" y2="83.189" gradientTransform="matrix(1 0 0 1 -52 0)" gradientUnits="userSpaceOnUse" class="svga-on-canvas-eyesiris-gradient-left-6">
      <stop id="SvgjsStop19540" stop-opacity="1" stop-color="#ffffff" offset="0"/>
      <stop id="SvgjsStop19541" stop-opacity="0" stop-color="#ffffff" offset="1"/>
    </linearGradient>
    <linearGradient id="SvgjsLinearGradient19543" x1="129.636" y1="79.822" x2="127.91" y2="81.879" gradientTransform="matrix(1 0 0 1 -52 0)" gradientUnits="userSpaceOnUse" class="svga-on-canvas-eyesiris-gradient-left-7">
      <stop id="SvgjsStop19544" stop-opacity="1" stop-color="#ffffff" offset="0"/>
      <stop id="SvgjsStop19545" stop-opacity="0" stop-color="#ffffff" offset="1"/>
    </linearGradient>
    <radialGradient id="SvgjsRadialGradient19548" cx="-568.654" cy="-521.042" r="59.752" gradientTransform="matrix(0.096 -0.0248 0.0245 0.0961 193.2804 119.9894)" gradientUnits="userSpaceOnUse" class="svga-on-canvas-eyesiris-gradient-right-1">
      <stop id="SvgjsStop19549" stop-opacity="1" stop-color="#ffffff" offset="0"/>
      <stop id="SvgjsStop19550" stop-opacity="0" stop-color="#ffffff" offset="1"/>
    </radialGradient>
    <radialGradient id="SvgjsRadialGradient19552" cx="-582.833" cy="-519.102" r="59.747" gradientTransform="matrix(0.0991 8.856319e-004 -0.0011 0.0991 183.1126 135.9856)" gradientUnits="userSpaceOnUse" class="svga-on-canvas-eyesiris-gradient-right-2">
      <stop id="SvgjsStop19553" stop-opacity="1" stop-color="#ffffff" offset="0"/>
      <stop id="SvgjsStop19554" stop-opacity="0" stop-color="#ffffff" offset="1"/>
    </radialGradient>
    <linearGradient id="SvgjsLinearGradient19558" x1="122.67" y1="88.268" x2="123.606" y2="87.152" gradientUnits="userSpaceOnUse" class="svga-on-canvas-eyesiris-gradient-right-5">
      <stop id="SvgjsStop19559" stop-opacity="1" stop-color="#ffffff" offset="0"/>
      <stop id="SvgjsStop19560" stop-opacity="0" stop-color="#ffffff" offset="1"/>
    </linearGradient>
    <linearGradient id="SvgjsLinearGradient19562" x1="127.212" y1="82.296" x2="126.463" y2="83.189" gradientUnits="userSpaceOnUse" class="svga-on-canvas-eyesiris-gradient-right-6">
      <stop id="SvgjsStop19563" stop-opacity="1" stop-color="#ffffff" offset="0"/>
      <stop id="SvgjsStop19564" stop-opacity="0" stop-color="#ffffff" offset="1"/>
    </linearGradient>
    <linearGradient id="SvgjsLinearGradient19566" x1="129.636" y1="79.822" x2="127.91" y2="81.879" gradientUnits="userSpaceOnUse" class="svga-on-canvas-eyesiris-gradient-right-7">
      <stop id="SvgjsStop19567" stop-opacity="1" stop-color="#ffffff" offset="0"/>
      <stop id="SvgjsStop19568" stop-opacity="0" stop-color="#ffffff" offset="1"/>
    </linearGradient>
    <radialGradient id="SvgjsRadialGradient19632" cx="126.379" cy="84.372" r="10.565" gradientTransform="matrix(-1 0 0 1 200 0)" gradientUnits="userSpaceOnUse" class="svga-on-canvas-eyesback-gradient-left-0">
      <stop id="SvgjsStop19633" stop-opacity="1" stop-color="#ffffff" offset="0"/>
      <stop id="SvgjsStop19634" stop-opacity="1" stop-color="#fdfefe" offset="0.544"/>
      <stop id="SvgjsStop19635" stop-opacity="1" stop-color="#f6f8f9" offset="0.74"/>
      <stop id="SvgjsStop19636" stop-opacity="1" stop-color="#eaeff2" offset="0.879"/>
      <stop id="SvgjsStop19637" stop-opacity="1" stop-color="#d9e3e8" offset="0.992"/>
      <stop id="SvgjsStop19638" stop-opacity="1" stop-color="#d8e2e7" offset="1"/>
    </radialGradient>
    <radialGradient id="SvgjsRadialGradient19640" cx="125.981" cy="84.372" r="10.565" gradientUnits="userSpaceOnUse" class="svga-on-canvas-eyesback-gradient-right-0">
      <stop id="SvgjsStop19641" stop-opacity="1" stop-color="#ffffff" offset="0"/>
      <stop id="SvgjsStop19642" stop-opacity="1" stop-color="#fdfefe" offset="0.544"/>
      <stop id="SvgjsStop19643" stop-opacity="1" stop-color="#f6f8f9" offset="0.74"/>
      <stop id="SvgjsStop19644" stop-opacity="1" stop-color="#eaeff2" offset="0.879"/>
      <stop id="SvgjsStop19645" stop-opacity="1" stop-color="#d9e3e8" offset="0.992"/>
      <stop id="SvgjsStop19646" stop-opacity="1" stop-color="#d8e2e7" offset="1"/>
    </radialGradient>
    <radialGradient id="SvgjsRadialGradient19648" cx="126.379" cy="84.372" r="10.565" gradientTransform="matrix(-1 0 0 1 200 0)" gradientUnits="userSpaceOnUse" class="svga-on-canvas-eyesfront-gradient-left-0">
      <stop id="SvgjsStop19649" stop-opacity="1" stop-color="#ffffff" offset="0"/>
      <stop id="SvgjsStop19650" stop-opacity="1" stop-color="#fdfefe" offset="0.544"/>
      <stop id="SvgjsStop19651" stop-opacity="1" stop-color="#f6f8f9" offset="0.74"/>
      <stop id="SvgjsStop19652" stop-opacity="1" stop-color="#eaeff2" offset="0.879"/>
      <stop id="SvgjsStop19653" stop-opacity="1" stop-color="#d9e3e8" offset="0.992"/>
      <stop id="SvgjsStop19654" stop-opacity="1" stop-color="#d8e2e7" offset="1"/>
    </radialGradient>
    <radialGradient id="SvgjsRadialGradient19658" cx="123.515" cy="85.489" fx="135.233" fy="85.522" r="16.667" gradientTransform="matrix(0.9998 0.0208 0.0166 -0.7998 -48.4257 151.2949)" gradientUnits="userSpaceOnUse" class="svga-on-canvas-eyesfront-gradient-left-3">
      <stop id="SvgjsStop19659" stop-opacity="1" stop-color="#e7c1bd" offset="0"/>
      <stop id="SvgjsStop19660" stop-opacity="0.3" stop-color="#e7c1bd" offset="0.7"/>
      <stop id="SvgjsStop19661" stop-opacity="0" stop-color="#f6e4e2" offset="1"/>
    </radialGradient>
    <radialGradient id="SvgjsRadialGradient19663" cx="123.064" cy="101.945" r="26.851" gradientTransform="matrix(-0.8988 -0.4384 -0.32 0.6561 220.1689 89.0045)" gradientUnits="userSpaceOnUse" class="svga-on-canvas-eyesfront-gradient-left-4">
      <stop id="SvgjsStop19664" stop-opacity="0" stop-color="#000000" offset="0.9"/>
      <stop id="SvgjsStop19665" stop-opacity="0.2" stop-color="#000000" offset="1"/>
    </radialGradient>
    <radialGradient id="SvgjsRadialGradient19669" cx="125.981" cy="84.372" r="10.565" gradientUnits="userSpaceOnUse" class="svga-on-canvas-eyesfront-gradient-right-0">
      <stop id="SvgjsStop19670" stop-opacity="1" stop-color="#ffffff" offset="0"/>
      <stop id="SvgjsStop19671" stop-opacity="1" stop-color="#fdfefe" offset="0.544"/>
      <stop id="SvgjsStop19672" stop-opacity="1" stop-color="#f6f8f9" offset="0.74"/>
      <stop id="SvgjsStop19673" stop-opacity="1" stop-color="#eaeff2" offset="0.879"/>
      <stop id="SvgjsStop19674" stop-opacity="1" stop-color="#d9e3e8" offset="0.992"/>
      <stop id="SvgjsStop19675" stop-opacity="1" stop-color="#d8e2e7" offset="1"/>
    </radialGradient>
    <radialGradient id="SvgjsRadialGradient19679" cx="123.116" cy="85.489" fx="134.835" fy="85.522" r="16.667" gradientTransform="matrix(-0.9998 0.0208 -0.0166 -0.7998 247.6288 151.3032)" gradientUnits="userSpaceOnUse" class="svga-on-canvas-eyesfront-gradient-right-3">
      <stop id="SvgjsStop19680" stop-opacity="1" stop-color="#e7c1bd" offset="0"/>
      <stop id="SvgjsStop19681" stop-opacity="0.3" stop-color="#e7c1bd" offset="0.7"/>
      <stop id="SvgjsStop19682" stop-opacity="0" stop-color="#f6e4e2" offset="1"/>
    </radialGradient>
    <radialGradient id="SvgjsRadialGradient19684" cx="122.665" cy="101.945" r="26.851" gradientTransform="matrix(0.8988 -0.4384 0.32 0.6561 -20.2092 88.8298)" gradientUnits="userSpaceOnUse" class="svga-on-canvas-eyesfront-gradient-right-4">
      <stop id="SvgjsStop19685" stop-opacity="0" stop-color="#000000" offset="0.9"/>
      <stop id="SvgjsStop19686" stop-opacity="0.2" stop-color="#000000" offset="1"/>
    </radialGradient>
    <linearGradient id="SvgjsLinearGradient19708" x1="100" y1="141" x2="100" y2="137" gradientUnits="userSpaceOnUse" class="svga-on-canvas-mouth-gradient-single-0">
      <stop id="SvgjsStop19709" stop-opacity="1" stop-color="#eed2cf" offset="0.1"/>
      <stop id="SvgjsStop19710" stop-opacity="1" stop-color="#e7c1bd" offset="1"/>
    </linearGradient>
    <linearGradient id="SvgjsLinearGradient19738" x1="100" y1="170" x2="100" y2="122" gradientUnits="userSpaceOnUse" class="svga-on-canvas-chinshadow-gradient-single-0">
      <stop id="SvgjsStop19739" stop-opacity="0.8" stop-color="#e7c1bd" offset="0"/>
      <stop id="SvgjsStop19740" stop-opacity="1" stop-color="#c8837c" offset="0.7"/>
    </linearGradient>
    <radialGradient id="SvgjsRadialGradient19743" cx="100" cy="225" r="250" gradientUnits="userSpaceOnUse" class="svga-on-canvas-backs-gradient-single-1">
      <stop id="SvgjsStop19744" stop-opacity="0" stop-color="#aee239" offset="0"/>
      <stop id="SvgjsStop19745" stop-opacity="1" stop-color="#9cd320" offset="1"/>
    </radialGradient>
  </defs>
  <g id="svga-group-wrapper">
    <g id="svga-group-backs-single"/>
    <g id="svga-group-humanwrap-move" transform="matrix(1,0,0,1,0,0)">
      <g id="svga-group-humanwrap" transform="matrix(1,0,0,1,0,0)">
        <g id="svga-group-hair-back-move" transform="matrix(1,0,0,1,0,0)">
          <g id="svga-group-hair-back" transform="matrix(1,0,0,1,0,0)">
            <path id="SvgjsPath19606" d="M100.5,100.5h-1v-1h1V100.5z" fill="#3b3128" stroke-width="none" opacity="1" stroke="none"/>
          </g>
        </g>
        <g id="svga-group-humanbody-single">
          <path id="SvgjsPath19443" d="M195.417 199.778c-2.196-4.746-8.195-11.779-14.86-13.722 -8.239-2.403-26.837-5.308-33.733-6.923 -5.528-1.296-16.662-11.294-20.564-14.65 -0.7-0.6-1.273-1.839-1.287-2.76 -0.139-10.864 4.195-39.724 4.195-39.724H100 70.833c0 0 4.334 28.859 4.193 39.724 -0.011 0.921-0.587 2.16-1.285 2.76 -3.902 3.356-15.036 13.354-20.564 14.65 -6.897 1.615-25.495 4.619-33.733 7.022 -6.667 1.942-12.664 8.876-14.86 13.622 -3.708 8.008-4.584 22.5-4.584 35h100 100C200 222.278 199.123 207.786 195.417 199.778z" fill="#f6e4e2" stroke-width="none" opacity="1" stroke="none"/>
          <path id="SvgjsPath19444" d="M159.156 184.058c24.342 3.542 34.586 8.708 37.794 50.721H200c0-12.5-0.877-26.992-4.583-35 -2.196-4.746-8.195-11.779-14.86-13.722 -8.239-2.403-26.837-5.308-33.733-6.923 -5.528-1.296-18.242-12.069-21.643-16.35 3.36 4.704 12.791 15.605 21.054 18.46C150.188 182.61 153.48 183.232 159.156 184.058zM53.766 181.244c8.263-2.854 17.693-13.756 21.054-18.46 -3.4 4.28-16.114 15.054-21.643 16.35 -6.896 1.615-25.494 4.619-33.733 7.022 -6.665 1.942-12.664 8.876-14.86 13.622 -3.706 8.008-4.583 22.5-4.583 35h3.05c3.188-41.744 13.475-47.183 37.794-50.721C46.52 183.232 49.813 182.61 53.766 181.244z" fill="#ffffff" stroke-width="none" opacity="1" stroke="none"/>
          <path id="SvgjsPath19445" d="M95.646 197.62c0 0-5.074-1.609-7.083-2.379 -10.449-4.009-44.395-6.607-44.395-6.607s35.754 1.419 43.644 2.779c-0.458-4.767-3.017-20.004-3.017-20.004s5.149 16.815 6.409 21.057C91.878 194.734 95.646 197.62 95.646 197.62zM106.445 196.278c-0.089 0.073-0.191 0.168-0.302 0.268C106.256 196.461 106.358 196.372 106.445 196.278zM95.646 197.62c0 0 2.893 2.992 4.347 3.03 1.91 0.051 4.828-2.899 6.151-4.104 -1.265 0.957-4.159 1.391-5.31 1.436C99.504 198.033 95.646 197.62 95.646 197.62zM116.664 190.101c-1.545 0.248-4.386 0.789-4.386 0.789l2.287-14.89c-0.646 3.071-4.474 16.211-8.12 20.278 1.91-1.616 6.158-2.391 8.324-2.704 10.236-1.484 10.232-1.483 41.062-4.94C155.831 188.634 126.76 188.479 116.664 190.101z" fill="#e7c1bd" stroke-width="none" opacity="1" stroke="none"/>
          <path id="SvgjsPath19446" d="M195.417 199.778c-2.196-4.746-8.195-11.779-14.86-13.722 -8.239-2.403-26.837-5.308-33.733-6.923 -5.528-1.296-16.662-11.294-20.564-14.65 -0.7-0.6-1.273-1.839-1.287-2.76 -0.139-10.864 4.195-39.724 4.195-39.724H100 70.833c0 0 4.334 28.859 4.193 39.724 -0.011 0.921-0.587 2.16-1.285 2.76 -3.902 3.356-15.036 13.354-20.564 14.65 -6.897 1.615-25.495 4.619-33.733 7.022 -6.667 1.942-12.664 8.876-14.86 13.622 -3.708 8.008-4.584 22.5-4.584 35h100 100C200 222.278 199.123 207.786 195.417 199.778z" fill="none" stroke="#c8837c" stroke-width="1.5" opacity="1"/>
        </g>
        <g id="svga-group-chinshadow-single">
          <path id="SvgjsPath19737" d="M75.085 163.986c6.598 3.574 14.825 5.886 25.017 5.88 10.183 0.006 18.332-2.283 24.839-5.829 -0.428-0.713-0.708-1.563-0.72-2.304 -0.126-9.877 3.345-34.021 4.076-38.983H71.703c0.73 4.963 4.202 29.106 4.074 38.982C75.768 162.441 75.497 163.279 75.085 163.986z" fill="url(#SvgjsLinearGradient19738)" opacity="1"/>
        </g>
        <g id="svga-group-clothes-single">
          <path id="SvgjsPath19723" d="M-3.682 236.192c-2.914-24.293 8.022-47.09 34.496-54.611 7.77-2.208 5.691-3.341 6.867-3.41 -0.039-0.211-0.045-0.2-0.045-0.63h-0.036c0.087-8.03 9.028-6.453 11.587-6.984 10.121-2.158 13.558-12.786 25.115-9.985 0.284 2.437 0.075 5.248-1.371 15.663 10.899 23.466 22.722 21.437 26.925 34.571 3.815-11.746 17.339-13.617 27.306-34.576 -0.655-5.884-2.083-11.033-1.482-15.935l0.057-0.042c7.744-2.583 11.127 0.874 14.21 3.854 9.397 9.083 14.382 3.325 19.085 7.457 1.871 1.659 2.547 3.997 2.547 6.518 21.412 3.11 45.974 9.898 41.089 57.481l0.096 0.104C181.094 235.667 57.546 241.095-3.682 236.192z" fill="#653220" stroke-width="none" opacity="1" stroke="none"/>
          <path id="SvgjsPath19724" d="M100.268 209.685c4.229-10.638 16.946-13.132 26.543-32.755 0.098-0.108 0.347-0.591 0.656-1.237 -0.164-1.826-0.372-3.747-1.213-5.757 -0.522-3.35-0.939-6.489-0.587-9.535 1.974 0.578 3.842 1.262 5.12 2.66 1.882 2.052 0.455 5.609-1.346 9.042C126.063 186.844 117.594 197.493 100.268 209.685zM169.282 198.859c2.938 10.376 4.895 26.928 2.544 37.445 1.962-0.045 2.686-0.097 4.506-0.138C177.146 225.12 175.154 207.48 169.282 198.859zM137.604 200.735c-12.805 7.48-25.687 10.358-37.321 20.291 -11.64-9.904-24.647-11.637-37.453-19.108 -5.87-2.36-14.874-10.699-20.377-16.572 17.313 26.284 29.706 18.823 57.434 36.538 27.736-17.715 40.205-11.692 57.516-37.974C151.9 189.782 143.476 198.39 137.604 200.735zM99.81 210.936c-4.238-10.644-16.459-14.383-26.056-34.006 -0.093-0.108-0.343-0.591-0.652-1.237 0.156-1.826-0.262-3.841 0.586-5.857 0.521-3.358 0.748-6.092 0.393-9.132 -1.969 0.574-3.025 0.959-4.303 2.357 -1.88 2.052-0.453 5.609 1.347 9.042C74.502 186.844 82.479 198.74 99.81 210.936zM27.163 197.688c-4.305 9.396-4.34 27.432-3.528 38.479 1.821 0.041 2.548 0.093 4.506 0.138C25.791 225.787 26.379 208.26 27.163 197.688zM99.888 212.964c16.389-4.909 33.813-13.894 48.305-35.847 -13.084 17.643-32.525 28.063-47.926 34.455 -15.89-5.762-34.915-17.221-46.006-32.635C67.257 200.226 83.508 208.055 99.888 212.964z" fill="#562413" stroke-width="none" opacity="1" stroke="none"/>
          <path id="SvgjsPath19725" d="M202.762 235.667c-0.115 0-0.256 0.001-0.374 0.001 -0.427-48.615-27.497-50.574-42.48-53.725 -2.345 0-3.563-6.505-5.288-8.24 -1.467-1.475-12.769-1.475-16.348-11.169 0.583 0.513 1.131 1.052 1.674 1.573 9.397 9.083 14.382 3.325 19.085 7.457 1.871 1.659 2.547 3.997 2.547 6.518 21.412 3.11 45.974 9.898 41.089 57.481L202.762 235.667zM-3.968 236.84c0.114 0 0.255 0.001 0.376 0.001 4.759-38.632 16.029-50.811 43.543-55.364 3.451-1.313 1.634-3.81 3.362-5.544 1.467-1.468 9.627-1.5 20.924-13.389 -0.582 0.513-3.075 1.042-3.615 1.563 -9.398 9.083-16.485 6.51-19.088 7.457 -3.209 1.188-3.707 4.028-3.707 6.546 -21.414 3.111-44.161 14.974-41.702 58.626L-3.968 236.84z" fill="#744230" stroke-width="none" opacity="1" stroke="none"/>
          <path id="SvgjsPath19726" d="M161.69 177.978c0-9.858-9.265-7.895-13.529-8.812 -9.409-2.02-9.113-12.916-22.582-8.985 -0.574 4.657 0.516 8.738 1.473 15.997 -9.877 20.755-23.576 23.093-27.196 34.245 -3.957-12.38-16.045-11.134-26.81-34.171 1.498-10.838 1.648-13.354 1.36-15.774 -10.271-2.349-12.588 4.32-21.876 8.776 -5.637 2.642-7.229 0.263-12.067 2.633 -2.007 0.968-3.018 3.609-2.946 5.767 -0.013 0.01 0 0.01 0 0.01 0 0.139 0 0.267 0.023 0.396 -1.175 0.082 0.546 0.074-7.323 1.346 -25.363 4.1-36.61 25.534-34.005 56.906 11.89 0 1.011 4.382 183.147-0.077 8.456-0.214 22.799-0.447 23.402-0.447C208.321 189.265 184.836 181.568 161.69 177.978zM-3.624 236.057c2.579-36.004 8.018-50.026 41.046-57.329 17.978 29.839 39.98 25.499 62.232 42.189 -20.166-16.771-41.302-14.549-61.622-42.583 -0.228-2.354 1-4.943 3.535-5.959 1.796-0.702 3.72-0.498 5.6-0.488 7.087 0.054 12.546-5.502 17.793-9.578 2.499-1.67 6.22-1.752 9.2-1.292 0.231 3.874-1.262 9.721-1.762 13.845 -1.042-2.295-2.029-4.664-3.015-7.022 12.47 36.624 24.903 28.334 30.461 43.525 -1.177-0.327-21.014-7.468-36.822-23.188 -3.358-3.325-10.011-10.656-10.516-11.34 19.573 26.51 32.079 27.86 47.391 34.691 0 0.01 0.021 0.035 0.021 0.048 0.012 0.036 0.068 0.221 0.086 0.256 0.074-0.033 0.158-0.07 0.239-0.091 0.026-0.022 0.047-0.033 0.08-0.033 2.122-1.043 16.065-5.902 26.681-13.2 10.927-7.517 23.39-23.821 22.451-22.64 -18.253 18.573-21.075 22.785-49.212 35.67 -0.027 0-0.048-0.01-0.069-0.021 -0.022-0.131-0.064-0.257-0.107-0.387 0.011-0.062 0.032-0.121 0.054-0.178 4.948-13.579 19.476-8.33 31.51-45.554 -1.232 3.216-2.527 6.382-3.979 9.486 -0.457-5.455-2.042-9.756-1.865-14.247 2.084-0.693 7.742-1.022 9.308 0.542 6.529 5.586 7.059 9.677 17.696 9.677 3.411 0.02 7.871 0.45 8.375 6.708 -0.627 0.922-5.291 6.431-9.703 10.809 -15.438 15.368-29.249 15.664-50.619 32.007 0.521 0 1.605-1.131 2.029-1.418 16.712-11.864 28.719-11.677 44.085-24.249 7.082-5.785 13.897-15.044 14.63-16.222 0.022 0.013 0.059 0.013 0.079 0.013 28.198 4.853 42.321 15.462 40.764 57.069C76.043 234.783 58.884 238.145-3.624 236.057z" fill="#370f01" stroke-width="none" opacity="1" stroke="none"/>
        </g>
        <g id="svga-group-head" transform="matrix(1,0,0,1,0,0)">
          <g id="svga-group-ears-left-move" transform="matrix(1,0,0,1,0,0)">
            <g id="svga-group-ears-left" transform="matrix(1,0,0,1,0,0)">
              <path id="SvgjsPath19718" d="M47.218 81.505c-0.967-2.487-8.082-6.002-11.21-5.447 -3.538 0.627-4.838 4.356-4.369 7.119 1.103 6.487 3.996 9.219 5.296 14.286 1.096 4.273 3.433 6.732 4.588 8.548 1.42 2.228 2.73 7.341 3.023 8.087 0.463 1.18 2.103 4.043 5.002 3.896 3.333-0.172 7.545-6.688 7.614-8.135C57.544 102.009 49.733 87.979 47.218 81.505z" fill="#f6e4e2" stroke="#c8837c" stroke-width="1.5" opacity="1"/>
              <path id="SvgjsPath19719" d="M47.953 107.96c0 0 0.429-1.071-0.094-2.022 -0.672-1.223-2.423-3.468-2.821-4.811 -0.325-1.098-0.16-3.445-0.213-4.593 -0.094-2.03-1.492-3.42-1.927-4.585 -2.914-7.793-6.792-12.623-9-13.626 -1.633 3.989-0.339 6.907 1.94 13.045 -1.375-8.342-0.054-10.95-0.054-10.95s4.018 3.465 6.001 11.172c0.359 1.391-1.111 4.294-0.83 5.705 0.352 1.772 4.184 5.201 5.257 6.635C47.049 105.047 47.953 107.96 47.953 107.96z" fill="#c8837c" stroke-width="none" opacity="1" stroke="none"/>
            </g>
          </g>
          <g id="svga-group-ears-right-move" transform="matrix(1,0,0,1,0,0)">
            <g id="svga-group-ears-right" transform="matrix(1,0,0,1,0,0)">
              <path id="SvgjsPath19720" d="M152.52 81.505c0.967-2.487 8.082-6.002 11.211-5.447 3.539 0.627 4.838 4.356 4.369 7.119 -1.104 6.487-3.996 9.219-5.297 14.286 -1.096 4.273-3.434 6.732-4.588 8.548 -1.42 2.228-2.73 7.341-3.023 8.087 -0.463 1.18-2.104 4.043-5.002 3.896 -3.332-0.172-7.545-6.688-7.613-8.135C142.193 102.009 150.006 87.979 152.52 81.505z" fill="#f6e4e2" stroke="#c8837c" stroke-width="1.5" opacity="1"/>
              <path id="SvgjsPath19721" d="M151.785 107.96c0 0-0.43-1.071 0.094-2.022 0.672-1.223 2.424-3.468 2.82-4.811 0.324-1.098 0.16-3.445 0.215-4.593 0.094-2.03 1.49-3.42 1.926-4.585 2.914-7.793 6.793-12.623 9-13.626 1.633 3.989 0.338 6.907-1.939 13.045 1.375-8.342 0.053-10.95 0.053-10.95s-4.018 3.465-6.002 11.172c-0.357 1.391 1.111 4.294 0.83 5.705 -0.352 1.772-4.184 5.201-5.256 6.635C152.689 105.047 151.785 107.96 151.785 107.96z" fill="#c8837c" stroke-width="none" opacity="1" stroke="none"/>
            </g>
          </g>
          <g id="svga-group-faceshape-wrap" transform="matrix(1,0,0,1,0,0)">
            <g id="svga-group-faceshape-single">
              <path id="SvgjsPath19734" d="M100.103 0.867C66.481 0.814 39.286 28.147 39.234 61.929c-0.008 5.365 0.669 10.569 1.953 15.53l0.004 0c0.011 0.054 8.121 28.575 9.808 43.634 1.244 11.102 12.587 40.796 49.103 40.773 36.515 0.022 46.938-29.431 48.897-40.773 2.58-14.929 10.001-43.58 10.013-43.634l0.005 0c1.283-4.961 1.961-10.165 1.952-15.53C160.919 28.147 133.723 0.814 100.103 0.867z" fill="#f6e4e2" stroke-width="none" opacity="1" stroke="none"/>
              <path id="SvgjsPath19735" d="M135.855 12.494c11.761 11.195 19.223 27.819 19.246 46.408 0.008 5.365-0.602 10.569-1.761 15.53l-0.005 0c-0.011 0.054-6.717 28.706-9.05 43.634 -1.771 11.343-11.189 40.795-44.184 40.773 -32.996 0.021-43.246-29.672-44.369-40.773 -1.526-15.059-8.853-43.581-8.863-43.634l-0.004 0c-1.162-4.961-1.772-10.165-1.765-15.53 0.026-18.59 7.489-35.215 19.25-46.41 -15.199 11.093-25.086 29.09-25.117 49.438 -0.008 5.365 0.669 10.569 1.953 15.53l0.004 0c0.011 0.054 8.121 28.575 9.808 43.634 1.244 11.102 12.587 40.796 49.103 40.773 36.515 0.022 46.938-29.431 48.897-40.773 2.58-14.929 10.001-43.58 10.013-43.634l0.005 0c1.283-4.961 1.961-10.165 1.952-15.53C160.939 41.583 151.053 23.587 135.855 12.494z" fill="#eed2cf" stroke-width="none" opacity="1" stroke="none"/>
              <path id="SvgjsPath19736" d="M100.103 0.867C66.481 0.814 39.286 28.147 39.234 61.929c-0.008 5.365 0.669 10.569 1.953 15.53l0.004 0c0.011 0.054 8.121 28.575 9.808 43.634 1.244 11.102 12.587 40.796 49.103 40.773 36.515 0.022 46.938-29.431 48.897-40.773 2.58-14.929 10.001-43.58 10.013-43.634l0.005 0c1.283-4.961 1.961-10.165 1.952-15.53C160.919 28.147 133.723 0.814 100.103 0.867z" fill="none" stroke="#c8837c" stroke-width="1.5" opacity="1"/>
            </g>
          </g>
          <g id="svga-group-mouth-single-move" transform="matrix(1,0,0,1,0,0)">
            <g id="svga-group-mouth-single" transform="matrix(1,0,0,1,0,0)">
              <path id="SvgjsPath19707" d="M100.671 140.999c-5.683-0.008-7.963-3.983-7.963-3.983 6.845 2.441 15.408 0.264 15.408 0.264S106.377 141.008 100.671 140.999z" fill="url(#SvgjsLinearGradient19708)" opacity="1"/>
              <path id="SvgjsPath19711" d="M81.783 130.557c3.57-0.112 10.625-0.609 13.211-0.457 1.337 0.079 3.53 0.999 4.971 1.313 1.003 0.22 4.814-0.817 5.842-0.822 2.687-0.017 8.513 1.274 11.642 1.782 0.173 0.027 0 0 0 0s-7.699 6.575-17.56 6.143C88.728 138.025 81.783 130.557 81.783 130.557S81.606 130.562 81.783 130.557z" fill="#39557e" stroke-width="none" opacity="1" stroke="none"/>
              <path id="SvgjsPath19712" d="M117.743 132.177c-0.085-0.126-0.641-0.245-0.846-0.221 -0.373 0.044-0.643 0.389-1.425 0.458 -0.904 0.084-5.695 0.815-7.002 0.782 -2.629-0.064-5.647 0.561-8.157 0.451 -2.513-0.11-6.464-1.159-9.077-1.344 -1.297-0.092-6.623-1.333-7.505-1.507 -0.759-0.15-0.82-0.506-1.125-0.607 -0.215-0.074-0.832-0.023-0.999 0.09 -0.145 0.1-0.1 0.557 0.001 0.683 0.248 0.305 1.167 0.435 1.838 0.568 0.931 0.184 6.336 1.438 7.67 1.532 2.586 0.186 6.589 1.303 9.123 1.414 2.532 0.112 5.608-0.587 8.21-0.521 1.338 0.034 6.197-0.699 7.156-0.784 0.694-0.064 1.556-0.179 1.876-0.402C117.634 132.664 117.826 132.309 117.743 132.177z" fill="#0c2850" stroke-width="none" opacity="1" stroke="none"/>
              <path id="SvgjsPath19713" d="M99.999 137.244c-4.411-0.192-11.369-1.912-14.032-4.152 1.629 0.195 5.155 0.481 6.772 0.693 1.997 0.265 4.761 1.003 6.795 1.192 2.196 0.202 5.2-0.237 7.342-0.422 1.79-0.153 4.563-0.661 6.35-0.72C110.221 135.628 104.257 137.43 99.999 137.244zM107.157 132.606c1.602-0.081 4.101-0.628 5.694-0.675 -1.796-0.491-4.499-0.493-6.406-0.697 -1.646-0.174-4.155 0.69-5.787 0.804 -1.838 0.132-4.022-1.204-5.733-1.333 -1.857-0.138-5.733 0.283-7.555 0.604 1.556 0.17 4.94 0.433 6.472 0.682 1.878 0.306 4.573 0.966 6.522 1.052C102.362 133.131 105.183 132.708 107.157 132.606z" fill="#435e86" stroke-width="none" opacity="1" stroke="none"/>
              <path id="SvgjsPath19714" d="M100.006 136.455c-2.626-0.118-6.989-1.062-8.873-2.365 0.482 0.022 1.884 0.146 2.348 0.189 0.146 0.015 0.293 0.031 0.438 0.05 0.757 0.101 1.489 0.304 2.271 0.515 0.759 0.207 2.481 0.47 3.329 0.557 0.167 0.019 0.333 0.027 0.501 0.034 1.043 0.048 2.983-0.061 3.943-0.21 0.609-0.095 1.182-0.192 1.77-0.247 0.32-0.032 0.669-0.047 1.061-0.049 0.336-0.003 0.689 0.006 1.036 0.017C106.063 135.841 102.713 136.574 100.006 136.455z" fill="#4e688d" stroke-width="none" opacity="1" stroke="none"/>
              <path id="SvgjsPath19715" d="M79.382 131.481c0 0-0.708-1.188-0.609-1.633 0.139-0.619 1.923-1.85 1.923-1.85s-1.08 1.415-1.247 1.863C79.288 130.294 79.382 131.481 79.382 131.481z" fill="#c8837c" stroke-width="none" opacity="1" stroke="none"/>
            </g>
          </g>
          <g id="svga-group-eyes-left-move" transform="matrix(1,0,0,1,0,0)">
            <g id="svga-group-eyes-left" transform="matrix(1,0,0,1,0,0)">
              <g id="svga-group-eyesback-left">
                <path id="SvgjsPath19631" d="M84.244 90.599c1.022 0 1.972-0.528 2.513-1.396 0.54-0.868 0.594-1.953 0.143-2.871l-3.079-6.258 -17.826-1.93 -5.955 6.134 4.864 6.321H84.244z" fill="url(#SvgjsRadialGradient19632)" opacity="1"/>
              </g>
              <g id="svga-group-eyesiriswrapper-left" transform="matrix(1,0,0,1,0.5,0.5)">
                <g id="svga-group-eyesiriscontrol-left" transform="matrix(1,0,0,1,0,0)">
                  <g id="svga-group-eyesiris-left" transform="matrix(1,0,0,1,0,0)">
                    <path id="SvgjsPath19689" d="M81.235 86.646c-1.087 5.321-5.202 8.456-9.201 6.994 -3.996-1.46-6.356-6.964-5.269-12.286 1.086-5.324 5.211-8.458 9.207-6.996C79.965 75.818 82.323 81.322 81.235 86.646z" fill="#8ab42d" stroke="#5c8600" stroke-width="0.5" opacity="1"/>
                    <path id="SvgjsPath19690" d="M80.068 86.771c-1.06 4.085-4.26 6.469-7.374 5.332 -2.875-1.053-4.689-4.732-4.454-8.62 1.068-0.112 2.233-0.146 3.444-0.066 -0.012 0.056-0.033 0.104-0.045 0.161 -0.381 1.875 0.509 3.841 1.991 4.384 1.487 0.542 3.001-0.545 3.385-2.419 0.047-0.245 0.073-0.49 0.081-0.732C78.112 85.304 79.109 85.942 80.068 86.771z" fill="#9cc344" stroke-width="none" opacity="1" stroke="none"/>
                    <path id="SvgjsPath19691" d="M75.015 81.018c-1.501-0.574-3.035 0.569-3.422 2.564 -0.389 1.986 0.515 4.063 2.017 4.638 1.505 0.575 3.039-0.569 3.426-2.555C77.427 83.669 76.52 81.591 75.015 81.018zM75.344 88.071c-0.625 0.258-1.271-0.085-1.443-0.771 -0.166-0.685 0.205-1.444 0.833-1.698 0.629-0.259 1.273 0.086 1.447 0.767C76.35 87.05 75.978 87.812 75.344 88.071z" fill="#000000" stroke-width="none" opacity="0.9"/>
                    <path id="SvgjsPath19692" d="M70.014 89.265c-0.463 0.37-1.152 0.04-1.548-0.744 -0.396-0.777-0.335-1.708 0.129-2.079 0.458-0.364 1.156-0.034 1.549 0.744C70.532 87.964 70.477 88.896 70.014 89.265z" fill="#ffffff" stroke-width="none" opacity="0.6"/>
                    <path id="SvgjsPath19693" d="M79.888 83.568c-1.058 0.843-2.647 0.083-3.547-1.701 -0.9-1.786-0.764-3.92 0.293-4.762 1.056-0.849 2.646-0.087 3.542 1.699C81.074 80.589 80.945 82.721 79.888 83.568z" fill="#ffffff" stroke-width="none" opacity="0.9"/>
                  </g>
                </g>
              </g>
              <g id="svga-group-eyesfront-left">
                <path id="SvgjsPath19656" d="M55 84.999c0 13.807 8.507 25 19 25s19-11.193 19-25 -8.507-25-19-25S55 71.192 55 84.999zM60.039 84.278l5.955-6.134 17.826 1.93 3.079 6.258c0.451 0.917 0.397 2.002-0.144 2.871 -0.54 0.868-1.49 1.396-2.513 1.396h-19.34L60.039 84.278z" fill="#f6e4e2" stroke-width="none" opacity="1" stroke="none"/>
                <path id="SvgjsPath19657" d="M58.897 86.046c-0.075 6.904 8.647 12.467 18.038 12.434 9.389-0.04 16.987-5.663 16.962-12.568 -0.023-6.903-7.647-12.467-17.04-12.431C67.465 73.519 58.999 76.602 58.897 86.046zM60.039 84.278l5.955-6.134 17.826 1.93 3.079 6.258c0.451 0.917 0.397 2.002-0.144 2.871 -0.54 0.868-1.49 1.396-2.513 1.396h-19.34L60.039 84.278z" fill="url(#SvgjsRadialGradient19658)" opacity="1"/>
                <path id="SvgjsPath19662" d="M84.244 90.599c1.022 0 1.972-0.528 2.513-1.396 0.54-0.868 0.594-1.953 0.143-2.871l-3.079-6.258 -17.826-1.93 -5.955 6.134 4.864 6.321H84.244z" fill="url(#SvgjsRadialGradient19663)" opacity="1"/>
                <path id="SvgjsPath19666" d="M87.406,93.211l-4.187,0.361l3.807-1.033l1.474-0.749L87.406,93.211z" fill="#c8837c" stroke-width="none" opacity="1" stroke="none"/>
                <path id="SvgjsPath19667" d="M87.898 88.238l-4.959-7.203c-2.389-1.422-6.495-2.125-16.609-2.35l-5.744 5.691c1.69 2.556 3.31 4.38 4.949 5.509h20.999l-0.999 0.844 -21.026 1.201c-4.976-5.845-4.522-5.929-8.697-12.515l3.238 3.155 5.766-6.146c7.559 0.671 12.526 1.137 19.386 2.52l3.992 2.397 -3.316-0.185L87.898 88.238z" fill="#d6f7f4" stroke-width="none" opacity="1" stroke="none"/>
              </g>
            </g>
          </g>
          <g id="svga-group-eyes-right-move" transform="matrix(1,0,0,1,0,0)">
            <g id="svga-group-eyes-right" transform="matrix(1,0,0,1,0,0)">
              <g id="svga-group-eyesback-right">
                <path id="SvgjsPath19639" d="M115.358 90.599c-1.022 0-1.973-0.528-2.513-1.396 -0.541-0.868-0.595-1.953-0.144-2.871l3.079-6.258 17.826-1.93 5.955 6.134 -4.864 6.321H115.358z" fill="url(#SvgjsRadialGradient19640)" opacity="1"/>
              </g>
              <g id="svga-group-eyesiriswrapper-right" transform="matrix(1,0,0,1,-0.5,0.5)">
                <g id="svga-group-eyesiriscontrol-right" transform="matrix(1,0,0,1,0,0)">
                  <g id="svga-group-eyesiris-right" transform="matrix(1,0,0,1,0,0)">
                    <path id="SvgjsPath19694" d="M133.234 86.646c-1.088 5.321-5.203 8.456-9.202 6.992 -3.994-1.458-6.356-6.963-5.267-12.284 1.087-5.324 5.21-8.458 9.204-6.994C131.966 75.818 134.324 81.323 133.234 86.646z" fill="#8ab42d" stroke="#5c8600" stroke-width="0.5" opacity="1"/>
                    <path id="SvgjsPath19695" d="M132.069 86.771c-1.062 4.085-4.261 6.468-7.375 5.33 -2.875-1.052-4.69-4.73-4.454-8.618 1.067-0.111 2.235-0.146 3.445-0.066 -0.011 0.055-0.035 0.103-0.046 0.161 -0.381 1.875 0.508 3.84 1.99 4.383 1.489 0.542 3.001-0.547 3.385-2.42 0.049-0.244 0.073-0.49 0.083-0.732C130.11 85.305 131.108 85.943 132.069 86.771z" fill="#9cc344" stroke-width="none" opacity="1" stroke="none"/>
                    <path id="SvgjsPath19696" d="M127.017 81.018c-1.504-0.573-3.036 0.569-3.425 2.564 -0.387 1.987 0.515 4.063 2.02 4.637 1.504 0.575 3.035-0.57 3.426-2.555C129.427 83.669 128.52 81.591 127.017 81.018zM127.343 88.071c-0.623 0.258-1.271-0.085-1.44-0.771 -0.168-0.684 0.204-1.445 0.833-1.697 0.629-0.26 1.272 0.085 1.445 0.766C128.351 87.049 127.978 87.811 127.343 88.071z" fill="#000000" stroke-width="none" opacity="0.9"/>
                    <path id="SvgjsPath19697" d="M122.014 89.265c-0.461 0.368-1.15 0.039-1.547-0.745 -0.396-0.776-0.335-1.706 0.128-2.079 0.459-0.364 1.155-0.033 1.547 0.746C122.533 87.964 122.479 88.895 122.014 89.265z" fill="#ffffff" stroke-width="none" opacity="0.6"/>
                    <path id="SvgjsPath19698" d="M131.888 83.568c-1.06 0.844-2.646 0.083-3.548-1.701 -0.897-1.786-0.766-3.919 0.293-4.761 1.056-0.85 2.646-0.088 3.54 1.698C133.074 80.591 132.945 82.722 131.888 83.568z" fill="#ffffff" stroke-width="none" opacity="0.9"/>
                  </g>
                </g>
              </g>
              <g id="svga-group-eyesfront-right">
                <path id="SvgjsPath19677" d="M125.602 59.999c-10.493 0-19 11.193-19 25s8.507 25 19 25 19-11.193 19-25S136.095 59.999 125.602 59.999zM134.698 90.599h-19.34c-1.022 0-1.973-0.528-2.513-1.396 -0.541-0.868-0.595-1.953-0.144-2.871l3.079-6.258 17.826-1.93 5.955 6.134L134.698 90.599z" fill="#f6e4e2" stroke-width="none" opacity="1" stroke="none"/>
                <path id="SvgjsPath19678" d="M122.744 73.48c-9.393-0.036-17.017 5.528-17.04 12.431 -0.025 6.906 7.573 12.529 16.962 12.568 9.391 0.034 18.113-5.529 18.038-12.434C140.603 76.602 132.137 73.519 122.744 73.48zM134.698 90.599h-19.34c-1.022 0-1.973-0.528-2.513-1.396 -0.541-0.868-0.595-1.953-0.144-2.871l3.079-6.258 17.826-1.93 5.955 6.134L134.698 90.599z" fill="url(#SvgjsRadialGradient19679)" opacity="1"/>
                <path id="SvgjsPath19683" d="M115.358 90.599c-1.022 0-1.973-0.528-2.513-1.396 -0.541-0.868-0.595-1.953-0.144-2.871l3.079-6.258 17.826-1.93 5.955 6.134 -4.864 6.321H115.358z" fill="url(#SvgjsRadialGradient19684)" opacity="1"/>
                <path id="SvgjsPath19687" d="M111.102,91.791l1.474,0.749l3.807,1.033l-4.187-0.361L111.102,91.791z" fill="#c8837c" stroke-width="none" opacity="1" stroke="none"/>
                <path id="SvgjsPath19688" d="M111.703 88.238l4.959-7.203c2.389-1.422 6.495-2.125 16.609-2.35l5.744 5.691c-1.69 2.556-3.31 4.38-4.949 5.509h-20.999l0.999 0.844 21.026 1.201c4.976-5.845 4.522-5.929 8.697-12.515l-3.238 3.155 -5.766-6.146c-7.559 0.671-12.526 1.137-19.386 2.52l-3.992 2.397 3.316-0.185L111.703 88.238z" fill="#d6f7f4" stroke-width="none" opacity="1" stroke="none"/>
              </g>
            </g>
          </g>
          <g id="svga-group-facehighlight-single">
            <path id="SvgjsPath19435" d="M141 113.974c0.035 22.622-18.292 40.994-40.938 41.025 -22.642 0.037-41.028-18.273-41.063-40.9 -0.035-22.62 18.292-41.064 40.937-41.1C122.579 72.964 140.967 91.349 141 113.974z" fill="url(#SvgjsRadialGradient19436)" opacity="1"/>
            <path id="SvgjsPath19439" d="M137.5 53.999c0 20.711-16.789 37.5-37.499 37.5 -20.711 0-37.501-16.789-37.501-37.5s16.79-37.5 37.501-37.5C120.711 16.499 137.5 33.288 137.5 53.999z" fill="url(#SvgjsRadialGradient19440)" opacity="1"/>
          </g>
          <g id="svga-group-eyebrows-left-move" transform="matrix(1,0,0,1,0,0)">
            <g id="svga-group-eyebrows-left-rotate" transform="matrix(1,0,0,1,0,0)">
              <g id="svga-group-eyebrows-left" transform="matrix(1,0,0,1,0,0)">
                <path id="SvgjsPath19699" d="M52.488 73.87c7.475-9.383 20.338-7.822 30.878-6.314 2.681 0.384 5.441 0.672 8.07 1.336 1.884 0.475 3.365 2.622 1.851 4.356 -0.708 0.825-2.253 0.672-3.207 0.652C77.459 73.645 63.193 66.387 52.488 73.87z" fill="#3b3128" stroke-width="none" opacity="1" stroke="none"/>
              </g>
            </g>
          </g>
          <g id="svga-group-eyebrows-right-move" transform="matrix(1,0,0,1,0,0)">
            <g id="svga-group-eyebrows-right-rotate" transform="matrix(1,0,0,1,0,0)">
              <g id="svga-group-eyebrows-right" transform="matrix(1,0,0,1,0,0)">
                <path id="SvgjsPath19700" d="M147.577 73.49c-2.164-1.448-4.454-2.47-7.043-2.889 -9.497-1.54-27.586 4.79-32.341 3.45 -2.912-0.822-2.323-3.739-1.035-4.458 0.775-0.433 0.99-0.422 7.909-1.612C126.824 65.961 139.988 64.355 147.577 73.49z" fill="#3b3128" stroke-width="none" opacity="1" stroke="none"/>
              </g>
            </g>
          </g>
          <g id="svga-group-nose-single-move" transform="matrix(1,0,0,1,0,0)">
            <g id="svga-group-nose-single" transform="matrix(1,0,0,1,0,0)">
              <path id="SvgjsPath19716" d="M100.729 120.838c-0.354 0.161-1.185 0.161-1.448-0.103 0 0-6.296-2.153-5.498-4.215 1.264-3.262 12.727-0.761 12.717 0C106.475 118.462 100.729 120.838 100.729 120.838z" fill="#e7c1bd" stroke-width="none" opacity="1" stroke="none"/>
              <path id="SvgjsPath19717" d="M92.215 113.609c0 0 5.448-18.624 6.008-22.61 1.063 6.47-1.503 20.873-1.774 23.812 -0.329 3.569 3.455 5.688 3.455 5.688 0.293 0.371-0.061 0.602-0.516 0.456l-6.631-2.559C91.186 117.061 91.186 115.79 92.215 113.609zM103.176 116.911c0.915 0.207 1.106 0.576 1.035 0.957 -0.069 0.385-0.462 0.911-1.288 0.43 -0.907-0.526-2.619-0.767-2.619-0.767S102.261 116.701 103.176 116.911z" fill="#c8837c" stroke-width="none" opacity="1" stroke="none"/>
            </g>
          </g>
          <g id="svga-group-beardwrap" transform="matrix(1,0,0,1,0,0)">
            <g id="svga-group-beard-single-move" transform="matrix(1,0,0,1,0,0)">
              <g id="svga-group-beard-single" transform="matrix(1,0,0,1,0,0)">
                <path id="SvgjsPath19612" d="M100.58 180.78c-4.91-0.01-6.91-2.7-9.68-6.42 -1.61-2.17-3.44-4.63-6.24-7.19 -0.62-0.58-2.7-2.54-3.23-3.59 -6.28-0.92-7.41-2.74-9.9-6.71 -1.05-1.68-2.35-3.76-4.38-6.31 -2.62-3.2-4.81-5.69-6.75-7.89C51.02 132 49.06 129.78 43.66 96.53c-0.52-3.09-1.1-7.04-1.23-8.14 0.13-0.05 0.26-0.11 0.38-0.18 1.29 0.18 3.04 0.39 5.92 0.59 0.84 5.28 2.39 8.4 3.89 11.42 1.03 2.07 2.1 4.21 2.89 7 2.21 7.51 6.37 11.3 10.39 14.97 4.5 4.1 9.14 8.34 10.96 17.81l0.01 0.06 0.06 0.02c3.98 1.11 5.6 3.71 7.8 7.88l0.08 0.16 0.09-0.15c0.51-0.86 0.81-1.48 1.04-1.97 0.79-1.68 0.89-1.89 7-5.27 1.62-0.91 2.43-1.52 3.26-2.23l0.35 0.15c0.74 0.28 1.63 0.43 2.6 0.43 1.11 0 2.22-0.21 2.92-0.54 0.94 1.32 1.99 1.72 3.31 2.24 1.86 0.72 4.17 1.62 7.43 5.51l0.05 0.06 0.07-0.04c2.71-1.44 4.42-3.58 6.23-5.84 1.88-2.35 3.83-4.78 7.13-6.87 2.4-5.56 5.62-8.89 8.73-12.12 3.87-4.01 7.87-8.16 10.04-16.49 0.54-2.04 3.24-8.84 4.85-12.9 0.6-1.52 1.05-2.65 1.19-3.03 2.54-0.01 4.77-0.4 6.83-0.81 -1.15 4.21-1.19 8.14-1.24 12.31 -0.06 5.81-0.13 11.81-3.2 19.28 -7.67 19.92-11.78 23.46-16.13 27.22 -2.36 2.04-4.8 4.14-7.85 9.09 -2.63 4.66-4.68 5.67-9.52 6.33l-0.06 0.01 -0.02 0.06c-1.23 4.21-5.54 7.24-10.1 10.45 -2.95 2.07-6 4.22-8.28 6.77 -0.05 0.05-0.14 0.16-0.25 0.28C101.08 180.29 100.74 180.68 100.58 180.78z" fill="#3b3128" stroke-width="none" opacity="1" stroke="none"/>
                <path id="SvgjsPath19613" d="M140.72 136.54c-6 10-13.72 11.46-17.72 22.46 0-4-1-6-2-10 -6.63 24.87-13 17-19 26 1-3-1-6-1-9 0 3-2 6-2 9 0-5-3-8-5-12 1 5 3 8 3 13 -6.79-11.51-13.63-13.22-19-23 0 2 0 5 0 7 -14.01-27.71-24.45-22.31-35.16-68.01 0.22 1.45 0.48 3.1 0.72 4.56 6.52 40.1 8.18 35.27 23.53 54.07 6.79 8.53 5.35 11.75 14.26 13 0.5 1.01 2.42 2.86 3.25 3.62 7.75 7.1 8.23 13.64 16.01 13.64 0.24-0.12 0.83-0.86 1.02-1.05 5.75-6.43 16.35-10.23 18.4-17.25 4.76-0.66 6.91-1.64 9.59-6.38 8.48-13.78 12.02-5.26 23.98-36.32 3.45-8.39 3.12-16.28 3.23-23.56C153.13 113.88 147.41 124.98 140.72 136.54z" fill="#2c2219" stroke-width="none" opacity="1" stroke="none"/>
                <path id="SvgjsPath19614" d="M151.04 88.97c-0.34 1-5.3 13.14-6.06 16 -3.9 14.93-13.38 16.08-18.73 28.55 -6.57 4.15-7.92 9.81-13.36 12.7 -5.62-6.73-8.55-4.59-10.78-7.81 -1.18 0.61-3.74 0.83-5.5 0.14H96.6c-0.14-0.06-0.27-0.11-0.41-0.17 -0.79 0.69-1.6 1.3-3.29 2.26 -7.9 4.37-5.79 3.45-8.08 7.28 -2.05-3.88-3.71-6.77-7.86-7.93 -3.43-17.94-16.67-16.88-21.35-32.79 -1.93-6.85-5.38-9.5-6.79-18.49 0 0-0.25-0.14-0.24 0.9 0.7 6.03 5.15 20.02 9.57 26.51 6.02 8.93 14.69 10.58 18.27 24.27 6.22 1.96 7.03 6.94 8.09 8.65 -0.71 2.95-0.14 7.2 2.58 9.92 0 0-0.49-0.67-0.6-0.9 -1.12-1.83-1.57-4.15-1.47-6.27 0.38-7.05 4.17-7.78 8.27-10.49 0.49-0.32 2.82-2 3.04-2.47 1.69 0.9 3.98 0.76 5.7 0.14 0.02 0.02 0.04 0.05 0.05 0.08 2.84 3.35 5.17 1.8 10.08 7.59 2.21 2.31 1.4 4.1 1.4 8.75 0.56-2.52 1.29-6.51-0.08-8.39 5.1-2.37 9.09-10.91 13.56-13.37 5.79-11.59 15.38-13.26 19.21-28.33 1.85-7.04 3.47-8.37 5.27-16.02C151.57 88.85 151.04 88.97 151.04 88.97zM157.71 88.27c-3.27 7.61-1.03 17.75-6.32 30.79 -12.34 32.03-16.09 21.52-23.57 37.21 -1.46 3.42-3.99 4.78-7.55 5.55 0.83-3.41 0.65-3.05 0.7-5.88 -1.51 13.1-10.32 13.24-18.38 21.27 -1.08 1.19-2.37 2.87-2.37 2.87 -5.74 0-9.13-8.55-13.13-12.02 -3.77-3.27-6.42-4.43-7.13-9.37 0 1-0.04 2.38 1 4.29 -7.32-1.44-6.42-5.56-12.28-13.71 -8.01-10.92-15.07-14.81-18.32-29.52 -1.04-4.71-7.52-30.22-7.58-31.63 -0.01 0-0.01 0.01-0.02 0.01 -0.14 0.08-0.29 0.14-0.44 0.2 0.11 1 0.71 5.07 1.24 8.22 6.52 40.1 8.18 35.27 23.53 54.07 6.79 8.53 5.35 11.75 14.26 13 0.5 1.01 2.42 2.86 3.25 3.62 7.75 7.1 8.23 13.64 16.01 13.64 0.24-0.12 0.83-0.86 1.02-1.05 5.75-6.43 16.35-10.23 18.4-17.25 4.76-0.66 6.91-1.64 9.59-6.38 8.48-13.78 12.02-5.26 23.98-36.32 5.31-12.91 1.65-21.63 4.48-31.75L157.71 88.27z" fill="#0d0905" stroke-width="none" opacity="1" stroke="none"/>
              </g>
            </g>
          </g>
          <g id="svga-group-mustache-single-move" transform="matrix(1,0,0,1,0,0)">
            <g id="svga-group-mustache-single" transform="matrix(1,0,0,1,0,0)">
              <path id="SvgjsPath19451" d="M100,18.13L100,18.13L100,18.13L100,18.13z" fill="#2a232b" stroke-width="none" opacity="1"/>
            </g>
          </g>
          <g id="svga-group-hair-front" transform="matrix(1,0,0,1,0,0)">
            <path id="SvgjsPath19608" d="M57.01 18.11c-9.29 3.25-23.25 29-19.24 55.05 1.43 9.27 0.15 4.2 6.29 19.67l4.49 0.3c1.51-4.33-7.32-18.26-4.23-29.88C46.7 54.28 47.46 35.3 57.01 18.11zM155.68 63.24c3.09 11.62-5.74 25.56-4.23 29.88l4.49-0.3c6.13-15.47 4.86-10.4 6.29-19.67 4.01-26.05-9.95-51.8-19.24-55.05C152.54 35.3 153.3 54.28 155.68 63.24z" fill="#3b3128" stroke-width="none" opacity="1" stroke="none"/>
            <path id="SvgjsPath19609" d="M57.01 18.11c-0.91 1.47-1.71 2.96-2.42 4.45 -4.5 3.24-7.95 7.8-11.32 12.53C47.33 26.04 52.68 19.63 57.01 18.11zM38.53 63.85c0-0.01 0.01-0.02 0.01-0.03C38.43 63.98 38.44 63.96 38.53 63.85zM38.26 75c2.63-4.58 2.68-8.41 4.71-10.92 -0.54 4.46 0.81 9.25 1.01 11.92 0.25 3.33 4.14 16.26 4.58 17.12C50.06 88.8 42.2 75 44.72 63.24c1.42-6.64 3.09-15.94 4.72-25.93l-0.05-0.11c-1 0.35-8.23 5.87-10.63 14.29 3.27-5.93 9.35-13.16 10.46-14 -1.37 4.54-3.62 7.54-4.24 14.98 -2.93 2.1-5.68 7.93-7.3 12.72 0.94-1.3 1.04-5.26 7.19-12.14 -0.57 4.24-0.24 6.21-1.78 10.23C40.4 65.55 39.68 69.97 38.26 75zM156.74 35.09c-3.37-4.72-6.83-9.29-11.32-12.53 -0.71-1.49-1.51-2.98-2.42-4.45C147.32 19.63 152.67 26.04 156.74 35.09zM161.46 63.82c0 0.01 0.01 0.02 0.01 0.03C161.56 63.96 161.57 63.98 161.46 63.82zM156.92 63.27c-1.54-4.02-1.21-5.99-1.78-10.23 6.16 6.88 6.25 10.84 7.19 12.14 -1.62-4.79-4.37-10.62-7.3-12.72 -0.62-7.45-2.87-10.44-4.24-14.98 1.11 0.84 7.18 8.07 10.46 14 -2.4-8.41-9.63-13.93-10.63-14.29l-0.05 0.11c1.63 9.99 3.29 19.29 4.72 25.93 2.52 11.76-5.34 25.56-3.83 29.88 0.44-0.86 4.33-13.8 4.58-17.12 0.2-2.67 1.56-7.46 1.01-11.92 2.02 2.52 2.07 6.34 4.71 10.92C160.32 69.97 159.6 65.55 156.92 63.27z" fill="#2c2219" stroke-width="none" opacity="1" stroke="none"/>
            <path id="SvgjsPath19610" d="M44.06 92.83c-2.53-7.48-4.06-9.89-4.99-17.47 -2.24-20.53 1.92-31.89 1.92-31.89 2.25-7.64 8.02-22.11 16.02-25.2 -9.45 3.14-22.48 23.89-19.5 54.51C38.19 81.36 41.43 86.18 44.06 92.83zM162.49 72.79c2.98-30.63-10.05-51.38-19.5-54.51 8 3.08 13.77 17.56 16.02 25.2 0 0 4.16 11.37 1.92 31.89 -0.93 7.58-2.46 9.99-4.99 17.47C158.57 86.18 161.81 81.36 162.49 72.79z" fill="#0d0905" stroke-width="none" opacity="1" stroke="none"/>
          </g>
          <g id="svga-group-glasses-single-move" transform="matrix(1,0,0,1,0,0)">
            <g id="svga-group-glasses-single" transform="matrix(1,0,0,1,0,0)">
              <path id="SvgjsPath19701" d="M149.6 87.26c0 9.03-7.39 16.52-16.42 16.52h-3.7c-3.38 0-9.1-2.02-14.66-7.3 -3.04-2.88-7.19-10.12-8.29-14.36 -0.51-1.96 0.43-4.67 0.7-5.17l2.69-5.08c0.48-0.91 2.3-1.92 3.33-2.08 2.79-0.43 10.45-1.09 10.45-1.09 5.18 0.27 11.62 0.61 17.11 3.1 5.88 2.67 8.79 7.34 8.79 14.1V87.26zM50.4 85.9c0-6.77 2.91-11.43 8.79-14.1 5.48-2.49 11.93-2.83 17.11-3.1 0 0 7.67 0.66 10.45 1.09 1.02 0.16 2.84 1.16 3.33 2.08l2.69 5.08c0.27 0.5 1.21 3.21 0.7 5.17 -1.11 4.24-5.26 11.48-8.29 14.36 -5.56 5.28-11.28 7.3-14.66 7.3h-3.7c-9.03 0-16.42-7.5-16.42-16.52V85.9z" fill="#5b1d0d" stroke-width="none" opacity="0.6"/>
              <path id="SvgjsPath19702" d="M149.6 87.26c0 0.65-0.05 1.29-0.12 1.92 -12.99-3.95-27.98-6.71-43.09-8.52 0.04-1.65 0.63-3.34 0.84-3.72l2.69-5.08c0.48-0.91 2.3-1.92 3.33-2.08 2.79-0.43 10.45-1.09 10.45-1.09 5.18 0.27 11.62 0.61 17.11 3.1 5.88 2.67 8.79 7.34 8.79 14.1V87.26zM90.09 71.86c-0.48-0.91-2.3-1.92-3.33-2.08 -2.79-0.43-10.45-1.09-10.45-1.09 -5.18 0.27-11.62 0.61-17.11 3.1 -3.18 1.45-5.49 3.48-6.94 6.11 12.16-0.23 26.49 0.18 41.23 1.44 -0.2-1.14-0.55-2.12-0.7-2.4L90.09 71.86z" fill="#ffffff" stroke-width="none" opacity="0.1"/>
              <path id="SvgjsPath19703" d="M104.15 81.18l4.15 9.35L107.37 91c-2.02-0.56-2.97-6.13-4.37-8.05 -0.96-1.32-5.05-1.32-6.01 0 -1.4 1.92-2.36 7.49-4.37 8.05l-0.93-0.47 4.15-9.35C96.77 79.1 103.22 79.09 104.15 81.18zM93.75 71.62c0.14-0.63 0.7-1.07 1.35-1.07 3.54 0 6.26 0 9.8 0 0.65 0 1.2 0.45 1.35 1.07l0.12 0.54 2.52-4.34c-2.58 0-15.21 0-17.79 0l2.52 4.34L93.75 71.62zM95.55 75.4v1.36c2.17-1.11 6.73-1.11 8.89 0V75.4C102.12 74.22 97.91 74.2 95.55 75.4z" fill="#dec200" stroke-width="none" opacity="1" stroke="none"/>
              <path id="SvgjsPath19704" d="M121.06 67.31l-10.59-0.21c-1.53-0.03-2.95 0.8-3.67 2.16l-2.69 5.08c-0.37 0.69-0.56 1.46-0.56 2.24 0.5 19.18 18.71 28.31 25.93 28.31 0 0 2.46 0 3.7 0 9.74 0 17.64-7.9 17.64-17.64V85.9C150.82 69.7 135.43 67.79 121.06 67.31zM149.6 87.26c0 9.03-7.39 16.52-16.42 16.52h-3.7c-3.38 0-9.1-2.02-14.66-7.3 -3.04-2.88-7.19-10.12-8.29-14.36 -0.51-1.96 0.43-4.67 0.7-5.17l2.69-5.08c0.48-0.91 2.3-1.92 3.33-2.08 2.79-0.43 9.01-1.09 13.26-0.87 2.74 0.14 8.82 0.39 14.3 2.88 5.88 2.67 8.79 7.34 8.79 14.1V87.26zM49.18 85.9v1.36c0 9.74 7.9 17.64 17.64 17.64 1.24 0 3.7 0 3.7 0 7.23 0 25.43-9.13 25.93-28.31 0-0.78-0.19-1.55-0.56-2.24l-2.69-5.08c-0.72-1.35-2.14-2.19-3.67-2.16l-10.59 0.21C64.57 67.79 49.18 69.7 49.18 85.9zM50.4 85.9c0-6.77 2.91-11.43 8.79-14.1 5.48-2.49 11.56-2.73 14.3-2.88 4.25-0.22 10.48 0.44 13.26 0.87 1.02 0.16 2.84 1.16 3.33 2.08l2.69 5.08c0.27 0.5 1.21 3.21 0.7 5.17 -1.11 4.24-5.26 11.48-8.29 14.36 -5.56 5.28-11.28 7.3-14.66 7.3h-3.7c-9.03 0-16.42-7.5-16.42-16.52V85.9z" fill="#edd218" stroke-width="none" opacity="1" stroke="none"/>
              <path id="SvgjsPath19705" d="M106.33 75.78c-0.4 0.4-1.04 0.4-1.44 0s-0.4-1.04 0-1.44 1.04-0.4 1.44 0S106.73 75.38 106.33 75.78zM109.44 69.94c0-0.56-0.46-1.02-1.02-1.02s-1.02 0.46-1.02 1.02 0.46 1.02 1.02 1.02S109.44 70.5 109.44 69.94zM94.39 74.04c0.56 0 1.02 0.46 1.02 1.02s-0.46 1.02-1.02 1.02 -1.02-0.46-1.02-1.02C93.37 74.49 93.82 74.03 94.39 74.04zM90.85 70.64c0.39 0.41 1.04 0.42 1.44 0.03s0.42-1.04 0.03-1.44c-0.39-0.41-1.04-0.42-1.44-0.03S90.46 70.23 90.85 70.64z" fill="#fce333" stroke-width="none" opacity="1" stroke="none"/>
              <path id="SvgjsPath19706" d="M156 83.47l-6 1.58 -0.4-3.78 6.4-1V83.47zM108.68 70.81v-1.79h-0.51v1.79H108.68zM106.43 75.5l-1.27-1.27 -0.36 0.36 1.27 1.27L106.43 75.5zM44 80.28l6.4 1L50 85.06l-6-1.58V80.28zM90.79 69.49l1.26 1.26 0.36-0.36 -1.26-1.26L90.79 69.49zM93.5 75.31h1.8v-0.51h-1.8V75.31z" fill="#dec200" stroke-width="none" opacity="1" stroke="none"/>
            </g>
          </g>
        </g>
      </g>
    </g>
    <rect id="SvgjsRect19420" width="200" height="15" x="0" y="185" fill="#ecf0f1" opacity="0.5" style="display: none;"/>
    <text id="SvgjsText19421" font-family="Roboto, Helvetica, Arial, sans-serif" font-size="10px" text-anchor="start" font-weight="400" anchor="start" fill="#333333" x="38.71479415893555" y="182.42831206321716" style="display: none;">
      <tspan id="SvgjsTspan19422" dy="13" x="38.71479415893555">Created on svgAvatars.com</tspan>
    </text>
  </g>
</svg>
